<svg width="80" height="12" xmlns="http://www.w3.org/2000/svg" xmlns:xlink="http://www.w3.org/1999/xlink">
  <defs>
    <g id="enable">
      <svg version="1.0" id="Layer_1" xmlns="http://www.w3.org/2000/svg" xmlns:xlink="http://www.w3.org/1999/xlink" x="0px" y="0px" width="30px" height="30px" viewBox="-82.357 4.875 21.698 16.09" enable-background="new -82.357 4.875 21.698 16.09" xml:space="preserve">
        <path d="M-60.953,5.167c-0.391-0.391-1.023-0.391-1.414,0L-75.75,18.551l-4.9-4.9c-0.391-0.391-1.023-0.391-1.414,0 s-0.391,1.023,0,1.414l5.607,5.607c0.195,0.195,0.451,0.293,0.707,0.293s0.512-0.098,0.707-0.293l14.09-14.0 C-60.562,6.191-60.562,5.558-60.953,5.167z" />
      </svg>
    </g>

    <g id="disable">
      <svg version="1.0" id="Layer_1" xmlns="http://www.w3.org/2000/svg" xmlns:xlink="http://www.w3.org/1999/xlink" x="0px" y="0px" width="30px" height="30px" viewBox="0 0 26.752 26.752" enable-background="new 0 0 26.752 26.752" xml:space="preserve">
        <path d="M15.497,13.376L26.312,2.562c0.586-0.585,0.586-1.535,0-2.121s-1.535-0.586-2.121,0L13.376,11.255L2.562,0.439 c-0.586-0.586-1.535-0.586-2.121,0c-0.586,0.585-0.586,1.535,0,2.121l10.814,10.815L0.439,24.19c-0.586,0.586-0.586,1.535,0,2.121 c0.293,0.293,0.677,0.439,1.061,0.439s0.768-0.146,1.061-0.439l10.815-10.814L24.19,26.312c0.293,0.293,0.677,0.439,1.061,0.439 s0.768-0.146,1.061-0.439c0.586-0.586,0.586-1.535,0-2.121L15.497,13.376z"/>
      </svg>
    </g>
  </defs>
</svg>
